<svg width="800" height="600" viewBox="0 0 800 600" xmlns="http://www.w3.org/2000/svg">
  <defs>
    <linearGradient id="g1" x1="0" y1="0" x2="1" y2="1">
      <stop offset="0" stop-color="#759094"/>
      <stop offset="1" stop-color="#2b2b2b"/>
    </linearGradient>
    <linearGradient id="g2" x1="0" y1="0" x2="0" y2="1">
      <stop offset="0" stop-color="#ffffff" stop-opacity="0.3"/>
      <stop offset="1" stop-color="#ffffff" stop-opacity="0.05"/>
    </linearGradient>
  </defs>

  <rect width="100%" height="100%" fill="#0f1115"/>
  <g transform="translate(100,60)">
    <rect x="0" y="0" rx="28" ry="28" width="600" height="480" fill="url(#g1)"/>
    <rect x="0" y="0" rx="28" ry="28" width="600" height="480" fill="url(#g2)"/>
    <g transform="translate(90,60)">
      <circle cx="120" cy="120" r="100" fill="#d6d6d6"/>
      <rect x="40" y="210" width="160" height="22" rx="11" fill="#ffffff" opacity="0.7"/>
      <rect x="0" y="250" width="240" height="12" rx="6" fill="#ffffff" opacity="0.4"/>
      <rect x="0" y="270" width="200" height="12" rx="6" fill="#ffffff" opacity="0.35"/>
    </g>
    <g transform="translate(360,120)">
      <rect x="0" y="0" width="180" height="14" rx="7" fill="#ffffff" opacity="0.9"/>
      <rect x="0" y="26" width="220" height="10" rx="5" fill="#ffffff" opacity="0.6"/>
      <rect x="0" y="46" width="200" height="10" rx="5" fill="#ffffff" opacity="0.55"/>
      <rect x="0" y="76" width="160" height="12" rx="6" fill="#ffffff" opacity="0.8"/>
      <rect x="0" y="100" width="220" height="10" rx="5" fill="#ffffff" opacity="0.6"/>
    </g>
  </g>
  <text x="50%" y="560" text-anchor="middle" fill="#ffffff" font-family="Inter" font-weight="700" font-size="20">Replace this with your photo (assets/profile.svg)</text>
</svg>
